<svg width="566" height="546" viewBox="0 0 566 566" fill="#dbe3d9" stroke="#dbe3d9" xmlns="http://www.w3.org/2000/svg">
<path d="M140 200C139.503 199.32 55.2211 256.221 6 292C3.22133 294.833 2.8162 296.5 2 299.5C1.1838 302.5 0.5 306.5 2 310.5C3.5 314.5 7.9246 315.38 12.5 316C23.9813 317.786 30.74 318.766 43 320.5C64.7157 323.83 77.0968 325.462 99.5 328C137.065 333.061 155.967 335.908 186.5 341C201.409 343.109 209.497 344.131 224 346C229.753 346.886 232.819 347.162 238 348C241.805 348.307 243.935 348.811 248 350C250.227 350.807 251.847 351.527 255 353L255.366 353.215C258.87 355.274 260.943 356.492 264.5 359.5C266.843 361.64 268.279 362.967 271 365.5L285 380.5L329 431L387.5 498L418.5 534L425 540.5C426.564 541.776 427.532 542.443 429.5 543.5C430.928 544.09 431.812 544.296 433.5 544.5C434.761 544.597 435.492 544.629 437 544.5C438.744 544.286 439.579 544.028 441 543.5C442.519 542.782 443.268 542.071 444.5 540.5C445.588 539.293 445.943 538.484 446.5 537C446.586 534.55 446.533 532.844 446.5 530L449 363H427.5L407.5 362L382.5 358L351.5 349.5L318.5 338L291.5 327L261 311.5L229.5 292.5L208.5 277L186.5 258.5L170 242L155.5 224L146.5 211C146.5 211 140.497 200.68 140 200Z" />
<path d="M255 353C251.847 351.527 250.227 350.807 248 350C243.935 348.811 241.805 348.307 238 348C232.819 347.162 229.753 346.886 224 346C209.497 344.131 201.409 343.109 186.5 341C155.967 335.908 137.065 333.061 99.5 328C77.0968 325.462 64.7157 323.83 43 320.5C30.74 318.766 23.9813 317.786 12.5 316C7.9246 315.38 3.5 314.5 2 310.5C0.5 306.5 1.1838 302.5 2 299.5C2.8162 296.5 3.22133 294.833 6 292C55.2211 256.221 139.503 199.32 140 200C140.497 200.68 146.5 211 146.5 211L155.5 224L170 242L186.5 258.5L208.5 277L229.5 292.5L261 311.5L291.5 327L318.5 338L351.5 349.5L382.5 358L407.5 362L427.5 363H449L446.5 530C446.533 532.844 446.586 534.55 446.5 537C445.943 538.484 445.588 539.293 444.5 540.5C443.268 542.071 442.519 542.782 441 543.5C439.579 544.028 438.744 544.286 437 544.5C435.492 544.629 434.761 544.597 433.5 544.5C431.812 544.296 430.928 544.09 429.5 543.5C427.532 542.443 426.564 541.776 425 540.5L418.5 534L387.5 498L329 431L285 380.5L271 365.5C268.279 362.967 266.843 361.64 264.5 359.5C260.943 356.492 258.87 355.274 255.366 353.215M255 353L255.366 353.215M255 353C255.124 353.073 255.246 353.144 255.366 353.215" />
<path d="M452.5 307.5V131V10.5C452.097 7.89181 451.657 6.45565 450 4.00001C448.368 2.3889 447.382 1.58212 445 1.00001C443.103 0.586554 442.114 0.497029 440.5 0.50001C437.47 0.596697 435.988 1.14985 433.5 2.50001L152.5 193C167.608 216.928 179.77 228.228 203 247.5C234.109 273.202 253.913 285.925 295 304.5C326.987 317.735 346.013 324.201 382.5 333.5C406.155 337.161 421.435 338.064 452.5 337.5V307.5Z" />
<path d="M471 143C466.333 138.833 456.2 130.1 453 128.5H452.5V91C459.732 95.2689 463.484 97.7216 470 102C480.933 109.581 486.657 113.95 496 122C500.995 126.901 503.757 129.979 508.5 137C509.051 139.805 509.07 141.341 508.5 144C507.836 146.613 507.381 148.058 506 150.5C504.617 153.033 503.366 154.317 499 156C494.634 157.306 492.132 157.554 487.5 156.5C484.073 154.053 482.614 152.751 480.5 150.5C476.774 147.518 474.694 145.877 471 143Z" />
<path d="M452.5 307.5C462.452 306.97 468.035 306.164 478 304C488.835 301.471 494.379 299.693 503.5 296C511.775 292.322 515.904 289.192 522.5 282C527.099 276.765 529.367 273.475 532 266C536.476 255 536.943 248.149 535 235L530 218.5L521.5 201.5C520.393 198.954 519.5 197.5 518.5 193.5C517.5 189 518.767 185.644 519.5 184C520.752 181.646 522.669 180.229 524.5 179C526.331 177.771 527 177 530 176C533 175 535 175.5 537.5 176C540 176.5 541.029 177.599 543 179C544.354 180.171 545.011 180.937 546 182.5C548.574 186.585 549.779 188.884 551.5 193L557 206L561.5 219.5L563.5 228.5C564.597 233.671 564.962 236.715 565 242.5C565.527 248.479 565.477 251.88 565 258C563.392 267.47 561.955 272.724 558.5 282C552.223 292.353 549.335 298.079 538.5 309C527.381 317.233 520.9 321.27 508.5 326.5C498.391 330.699 492.812 332.307 483 334C470.892 336.473 464.217 337.62 452.5 337.5V307.5Z" />
<path d="M152.5 193C143.478 180.889 136.558 171.115 131.5 156L127 141C122.445 123.982 122.239 113.45 127 92.5C131.257 81.7789 134.901 75.2823 144.5 62.5C157.757 50.285 165.898 45.1254 181.5 38.5C196.399 31.9785 204.833 29.7366 220 28C256.817 25.0055 277.074 25.9475 312.5 32.5C325.031 34.9563 331.18 36.2512 341.5 38.5C351.285 40.9481 357.036 43.0883 367.5 47.5L334 70C307.982 62.1778 292.311 59.4099 263 56.5C245.459 56.3005 235.612 56.6988 218 59.5C203.248 62.0961 195.229 64.6075 181.5 71.5C172.141 79.1709 168.056 83.5471 163 91.5C156.152 100.884 154.214 106.643 153 117.5C153.217 125.795 154.241 130.62 157.5 139.5C161.233 150.504 163.83 156.238 169 166C171.77 170.532 173.306 172.968 176 177L152.5 193Z" />
</svg>
