<?xml version="1.0" standalone="no"?>
<!DOCTYPE svg PUBLIC "-//W3C//DTD SVG 20010904//EN"
 "http://www.w3.org/TR/2001/REC-SVG-20010904/DTD/svg10.dtd">
<svg version="1.0" xmlns="http://www.w3.org/2000/svg"
 width="512.000000pt" height="512.000000pt" viewBox="0 0 512.000000 512.000000"
 preserveAspectRatio="xMidYMid meet">

<g transform="translate(0.000000,512.000000) scale(0.100000,-0.100000)"
fill="#000000" stroke="none">
<path d="M2330 5109 c-476 -45 -921 -217 -1310 -507 -149 -111 -391 -353 -502
-502 -294 -395 -462 -833 -508 -1325 -32 -349 23 -760 145 -1091 132 -355 326
-656 599 -930 438 -437 971 -686 1591 -744 349 -32 760 23 1091 145 355 132
656 326 930 599 437 438 686 971 744 1591 32 349 -23 760 -145 1091 -132 355
-326 656 -599 930 -438 437 -971 686 -1591 744 -125 11 -320 11 -445 -1z m738
-459 c43 -27 72 -76 72 -125 0 -153 -200 -201 -271 -65 -37 68 -14 144 55 185
50 30 100 32 144 5z m-1012 -55 c25 -38 6 -71 -54 -96 -408 -170 -714 -429
-918 -776 -368 -625 -347 -1386 55 -1984 303 -451 791 -746 1336 -809 92 -10
215 -14 215 -6 0 3 -22 58 -50 123 -56 133 -61 165 -27 188 21 13 67 9 502
-45 264 -33 491 -65 504 -72 32 -17 43 -49 27 -79 -12 -22 -485 -650 -563
-746 -34 -43 -69 -55 -101 -35 -7 5 -36 64 -65 133 l-53 124 -40 -2 c-218 -13
-445 -14 -535 -3 -941 108 -1682 806 -1844 1735 -112 643 91 1313 540 1784
248 260 523 434 875 552 139 46 173 49 196 14z m1850 -304 c49 -23 107 -88
122 -140 44 -146 -65 -292 -218 -294 -146 -1 -249 121 -221 263 29 146 186
231 317 171z m-243 -719 c38 -38 47 -104 20 -144 -10 -14 -74 -71 -143 -126
-358 -285 -709 -663 -957 -1032 -72 -107 -94 -125 -152 -125 -27 0 -56 6 -66
15 -9 8 -58 67 -107 132 -125 164 -288 348 -391 442 -98 90 -117 124 -98 187
17 58 63 84 139 80 42 -2 318 -277 455 -453 29 -37 57 -67 62 -67 6 0 28 25
50 56 105 148 286 361 470 552 165 171 492 455 580 505 43 24 101 15 138 -22z
m808 -4 c101 -60 153 -148 153 -263 1 -300 -404 -407 -549 -144 -27 49 -30 62
-30 144 1 74 5 98 24 135 58 113 144 162 277 157 66 -3 89 -8 125 -29z m81
-886 c66 -29 141 -102 169 -165 33 -74 33 -191 0 -265 -31 -69 -111 -143 -181
-165 -209 -68 -414 70 -428 287 -9 146 75 270 217 323 51 19 164 11 223 -15z
m-322 -864 c218 -102 260 -377 83 -538 -202 -184 -542 -57 -561 210 -11 156
74 293 211 342 75 27 193 21 267 -14z"/>
</g>
</svg>
